<svg xmlns="http://www.w3.org/2000/svg" viewBox="0 0 64 64" role="img" aria-label="DeepSeek icon">
  <rect width="64" height="64" rx="16" fill="#2563eb"/>
  <path fill="#bfdbfe" d="M43.9 18.3c-7.7-3.3-17.3-.8-22.3 5.8-4.9 6.4-3.8 15.4 2.5 20.4 6.4 5.1 15.8 4.2 21.1-2 2.1-2.4 3.4-5.2 3.8-8.2 2.9-.5 5.3-2.1 6.8-4.5-2.3.2-4.8-.5-6.8-2-1.9-1.5-3.5-3.7-5.1-9.5Z"/>
  <path fill="#172554" d="M21.9 24.5c5.1-3.4 12.5-3.7 17.8-.8.7 2.5 1.5 4.5 2.5 6.1-4.2-.7-8.7.2-12.4 2.5-4.6 2.8-7.6 7.3-8.4 12.1-5.5-5.1-5.3-14.1.5-19.9Z" opacity=".35"/>
  <circle cx="39.5" cy="31" r="3.2" fill="#eff6ff"/>
  <path fill="#eff6ff" d="M16 43.8c6.6-1 10.5-3.4 13.4-7.8-1.1 7.1-5.8 11.8-12.1 12.2L16 43.8Z"/>
</svg>
